HIERARCHY
ROOT pelvis
{
  OFFSET 0 100 0
  CHANNELS 6 Xposition Yposition Zposition Zrotation Xrotation Yrotation
  JOINT pelvis_right_femur
  {
    OFFSET -10.78128 -3.44521 -0.5502486
    CHANNELS 3 Zrotation Xrotation Yrotation
    JOINT right_femur_tibia
    {
      OFFSET -0.8047443 -44.0398 -0.1307829
      CHANNELS 3 Zrotation Xrotation Yrotation
      JOINT right_tibia_foot
      {
        OFFSET 3.006224 -47.83518 -5
        CHANNELS 3 Zrotation Xrotation Yrotation
        End Site
        {
          OFFSET 0 -5 15
        }
      }
    }
  }
  JOINT pelvis_left_femur
  {
    OFFSET 10.78128 -3.44521 -0.5502486
    CHANNELS 3 Zrotation Xrotation Yrotation
    JOINT left_femur_tibia
    {
      OFFSET 0.8047443 -44.0398 -0.1307829
      CHANNELS 3 Zrotation Xrotation Yrotation
      JOINT left_tibia_foot
      {
        OFFSET -4.370144 -48.10324 -4.275266
        CHANNELS 3 Zrotation Xrotation Yrotation
        End Site
        {
          OFFSET 0 -5 15
        }
      }
    }
  }
  JOINT pelvis_spine1
  {
    OFFSET 0 6.468898 -3.129235
    CHANNELS 3 Zrotation Xrotation Yrotation
    JOINT spine1
    {
      OFFSET 0 23.15396 4.99043
      CHANNELS 3 Zrotation Xrotation Yrotation
      JOINT spine2
      {
        OFFSET 0 20.79997 -5.064912
        CHANNELS 3 Zrotation Xrotation Yrotation
        JOINT neck
        {
          OFFSET 0 14.38658 9.616178
          CHANNELS 3 Zrotation Xrotation Yrotation
          End Site
          {
            OFFSET 0 20 0
          }
        }
      }
      JOINT right_manubrium
      {
        OFFSET -5.722621 16.35077 3.967754
        CHANNELS 3 Zrotation Xrotation Yrotation
        JOINT right_clavicle
        {
          OFFSET -13.16364 1.694482 -4.693211
          CHANNELS 3 Zrotation Xrotation Yrotation
          JOINT right_humerus
          {
            OFFSET -28.5034 -0.3100689 -2.792744
            CHANNELS 3 Zrotation Xrotation Yrotation
            JOINT right_radius
            {
              OFFSET -25.15693 0.02248979 -1.271978
              CHANNELS 3 Zrotation Xrotation Yrotation
              End Site
              {
                OFFSET -15 0 0
              }
            }
          }
        }
      }
      JOINT left_manubrium
      {
        OFFSET 5.722621 16.35077 3.967754
        CHANNELS 3 Zrotation Xrotation Yrotation
        JOINT left_clavicle
        {
          OFFSET 13.16364 1.694482 -4.693211
          CHANNELS 3 Zrotation Xrotation Yrotation
          JOINT left_humerus
          {
            OFFSET 29.39168 -1.063119 -2.237045
            CHANNELS 3 Zrotation Xrotation Yrotation
            JOINT left_radius
            {
              OFFSET 24.59957 -0.9528479 0.9047498
              CHANNELS 3 Zrotation Xrotation Yrotation
              End Site
              {
                OFFSET 15 -0 -0
              }
            }
          }
        }
      }
    }
  }
}
MOTION
Frames: 11
Frame Time: 0.0416666666667
2101.513 100.9921 2011.442 5.747606 0.8147682 86.07467 2.661046 15.29173 5.642525 -0 17.71906 -0 2.327756 -11.92079 -2.008961 0.7455979 -25.17032 -2.061442 -0 25.97649 -0 -6.157413 -7.156511 18.20747 -1.713103 0.2043542 8.63338 -0.2062542 10.9006 -4.102119 1.63211 21.03135 4.712528 2.664914 -16.80066 5.017299 2.320574 -21.74239 11.68155 79.29366 23.54886 -5.911153 -0 0 24.78515 -22.80318 9.847586 14.2316 4.319185 -17.1146 -2.835319 -91.89739 21.78807 23.30969 0 0 -14.17345 -1.678227 4.518503 16.26976
2108.409 100.4589 2010.787 4.993229 0.9494094 85.65249 1.742784 16.58693 5.733922 -0 22.23576 -0 2.935825 -10.80624 -1.474813 0.2587633 -26.01727 -2.786354 -0 22.05648 -0 -5.660501 -7.315404 17.80902 -2.025348 -0.2921877 8.961781 -0.4936816 10.66837 -3.930391 1.668929 20.72959 5.120393 2.659069 -17.3429 5.613256 2.42072 -22.11515 11.60152 78.76963 24.48684 -5.1815 -0 0 25.53664 -24.34625 11.034 14.83744 4.015694 -16.54911 -2.676114 -92.37193 21.99111 25.09829 0 0 -13.25546 -2.008798 4.916783 17.02217
2115.52 100.2214 2010.019 5.025373 1.218949 85.52704 0.7261071 16.75867 5.919536 -0 28.89106 -0 4.367895 -8.695528 -1.641552 -0.9057171 -24.88611 -4.174808 -0 21.50958 -0 -5.616308 -7.708071 17.51589 -2.330093 -0.6536327 9.172673 -0.9247271 10.44244 -3.605624 1.887619 20.65218 5.723615 2.587679 -17.57979 6.722969 2.731957 -21.86955 11.46408 78.7357 25.63946 -5.173382 -0 0 25.34234 -26.52672 13.48051 15.18175 3.710212 -15.83198 -2.692094 -92.52498 22.18973 26.24668 0 0 -12.46493 -2.440438 5.619415 17.70722
2122.722 100.4725 2009.186 5.796448 1.590695 85.76412 -0.1821229 15.84343 5.977502 -0 37.2122 -0 6.111948 -6.051289 -2.53576 -2.469172 -22.01849 -5.788423 -0 22.99692 -0 -5.901263 -8.40934 17.40721 -2.652405 -0.774355 9.082773 -1.375063 10.18414 -3.232606 2.151492 20.89914 6.240738 2.442316 -17.34095 7.819316 3.099764 -21.08071 11.22519 79.27657 26.36033 -5.665756 -0 0 24.44209 -28.14433 15.66591 15.15927 3.464152 -15.05622 -2.849849 -92.39749 22.47679 26.4259 0 0 -11.56577 -2.923782 6.282921 18.23932
2129.835 101.2362 2008.314 6.744812 1.940272 86.35629 -0.7342911 13.7811 5.898879 -0 45.24499 -0 7.281334 -3.721227 -3.814438 -3.866165 -18.33794 -6.993755 -0 24.33211 -0 -6.060794 -9.296204 17.25505 -2.953816 -0.7173402 8.635901 -1.617458 10.06476 -3.145233 2.305 21.26263 6.347918 2.192479 -16.82253 8.337582 3.324127 -20.18883 10.98045 80.35898 26.23606 -6.516819 -0 0 23.33233 -28.14717 16.28381 14.73423 3.282204 -14.57638 -3.058165 -91.92909 22.7434 25.56207 0 0 -10.81291 -3.152015 6.522343 18.37479
2136.719 102.3108 2007.421 7.581247 2.163079 87.22801 -0.8988377 10.5554 5.74319 -0 50.99471 -0 7.756988 -2.396194 -5.169842 -4.807109 -14.33447 -7.641638 -0 24.51449 -0 -6.006032 -10.31633 16.93979 -3.136356 -0.5127935 7.902436 -1.595778 10.08133 -3.423298 2.353619 21.58849 6.121667 1.843574 -16.23832 8.387464 3.272232 -19.39183 10.76041 81.78375 25.431 -7.641447 -0 0 22.19016 -26.96327 15.68716 14.09887 3.223941 -14.49351 -3.28094 -91.04896 22.87937 23.73403 0 0 -10.57342 -3.000293 6.39131 17.97041
2143.32 103.4191 2006.524 8.333306 2.273007 88.28307 -0.8311881 6.372429 5.484489 -0 53.76034 -0 7.86227 -2.262249 -6.471033 -5.339198 -10.0417 -7.972728 -0 23.73543 -0 -5.995439 -11.49689 16.48732 -3.15918 -0.160429 6.991798 -1.417395 10.06081 -3.898206 2.377573 21.89383 5.809881 1.457751 -15.59178 8.328349 2.970424 -18.5815 10.50712 83.30005 24.38574 -8.936949 -0 0 20.95936 -25.47694 14.77541 13.40914 3.36665 -14.67245 -3.523831 -89.7844 22.88666 21.08054 0 0 -10.95687 -2.589822 6.179108 17.10212
2149.643 104.3252 2005.65 8.988422 2.332806 89.42766 -0.687955 1.553964 5.093819 -0 53.5358 -0 7.690048 -3.106543 -7.627436 -5.579593 -5.542196 -8.181126 -0 22.33925 -0 -6.16149 -12.82009 15.91741 -3.067221 0.285966 6.001484 -1.169051 9.915345 -4.443609 2.419174 22.19934 5.522915 1.112987 -14.86807 8.289392 2.498264 -17.67494 10.18725 84.76069 23.39559 -10.34456 -0 0 19.61307 -24.04756 13.90502 12.67436 3.738036 -15.05266 -3.775904 -88.22477 22.77676 17.77417 0 0 -11.9314 -1.996847 6.049583 15.86489
2155.749 104.8733 2004.829 9.458783 2.393684 90.58092 -0.5778033 -3.486197 4.575397 -0 50.69903 -0 7.208603 -4.456185 -8.561577 -5.631115 -1.073328 -8.349109 -0 20.66198 -0 -6.463838 -14.20662 15.25409 -2.941431 0.7341769 5.032913 -0.896982 9.657698 -4.994378 2.483899 22.48657 5.294885 0.8795709 -14.13957 8.267385 1.959252 -16.68923 9.823622 86.07526 22.6581 -11.83093 -0 0 18.16959 -22.78855 13.17016 11.89905 4.300797 -15.63896 -4.015767 -86.52438 22.57397 14.12913 0 0 -13.4201 -1.265161 6.069594 14.40081
2161.721 104.9995 2004.079 9.693254 2.479191 91.68867 -0.5539816 -8.292439 3.962051 -0 46.12577 -0 6.473255 -5.844707 -9.249913 -5.582147 3.083208 -8.524889 -0 19.05697 -0 -6.836661 -15.55955 14.54997 -2.842547 1.108644 4.174394 -0.6400539 9.32368 -5.489677 2.573156 22.74388 5.134342 0.776939 -13.50222 8.260854 1.447606 -15.68756 9.459299 87.19274 22.26102 -13.32685 -0 0 16.69354 -21.75613 12.63637 11.10798 4.960691 -16.37722 -4.221897 -84.8782 22.3761 10.55863 0 0 -15.24228 -0.4925079 6.284402 12.93741
2167.64 104.7108 2003.41 9.727373 2.591356 92.72485 -0.6162159 -12.53165 3.306973 -0 40.8046 -0 5.610195 -7.038474 -9.728693 -5.490757 6.753127 -8.736443 -0 17.78932 -0 -7.24998 -16.80691 13.86627 -2.790961 1.381247 3.465713 -0.4273732 8.9367 -5.878272 2.698854 22.98451 5.013604 0.7677096 -12.9953 8.280147 0.995599 -14.71927 9.118283 88.12268 22.12723 -14.73764 -0 0 15.26819 -20.91763 12.29375 10.3081 5.623001 -17.15788 -4.377665 -83.41754 22.28814 7.342742 0 0 -17.14639 0.2355822 6.705428 11.63726
